<svg width="32" height="32" viewBox="0 0 32 32" fill="none" xmlns="http://www.w3.org/2000/svg">
<path d="M15.2776 0.0151126H16.7222C19.6113 -0.103864 22.4861 0.481085 25.0991 1.71951C27.2404 2.78628 29.0127 4.4704 30.1871 6.55464C31.4845 9.0003 32.1053 11.7483 31.9854 14.5142V17.4854C32.1049 20.2506 31.4841 22.9974 30.1871 25.4425C29.0129 27.5267 27.2401 29.2104 25.0981 30.2757C22.4868 31.5183 19.6116 32.1047 16.7222 31.984H15.2776C12.3882 32.1045 9.51332 31.5181 6.90195 30.2757C4.75943 29.2112 2.98637 27.5273 1.81291 25.4425C0.515462 22.9976 -0.105401 20.2506 0.0146156 17.4854V14.5132C-0.104754 11.7477 0.516066 9.00013 1.81291 6.55464C2.98715 4.47016 4.75997 2.78622 6.90195 1.72048C9.51438 0.481494 12.3887 -0.103791 15.2776 0.0151126Z" fill="black"/>
</svg>
